<?xml version="1.0" encoding="utf-8"?>
<svg xmlns="http://www.w3.org/2000/svg" xmlns:xlink="http://www.w3.org/1999/xlink" width="440.39252" zoomAndPan="magnify" viewBox="345.1725 404.1 440.39252 892.3876" height="892.3876" preserveAspectRatio="xMidYMid meet" version="1.0">
  <defs>
    <g />
    <clipPath id="id1">
      <path d="M 287 499.570312 L 346 499.570312 L 346 594 L 287 594 Z M 287 499.570312 " clip-rule="nonzero" />
    </clipPath>
    <clipPath id="id2">
      <path d="M 947 880 L 1074.972656 880 L 1074.972656 920 L 947 920 Z M 947 880 " clip-rule="nonzero" />
    </clipPath>
    <clipPath id="id3">
      <path d="M 827 1015 L 876 1015 L 876 1100.65625 L 827 1100.65625 Z M 827 1015 " clip-rule="nonzero" />
    </clipPath>
  </defs>
  <path fill="#cb6ce6" d="M 429.183594 1064.484375 C 429.324219 1062.109375 429.542969 1059.59375 429.839844 1056.839844 C 429.890625 1056.320312 429.945312 1055.855469 430 1055.390625 C 430.097656 1054.519531 430.199219 1053.644531 430.257812 1052.769531 L 430.453125 1048.808594 L 430.902344 1041.132812 C 430.925781 1040.648438 430.957031 1040.230469 430.988281 1039.8125 C 431.054688 1038.941406 431.128906 1037.953125 431.113281 1036.902344 L 431.101562 1033.121094 L 431.128906 1025.554688 C 431.179688 1023.980469 431.078125 1022.476562 430.972656 1021.207031 L 430.722656 1017.476562 C 430.648438 1016.511719 430.59375 1015.585938 430.539062 1014.664062 C 430.441406 1013.042969 430.34375 1011.367188 430.160156 1009.667969 L 428.441406 998.003906 L 427.511719 994.117188 C 427.511719 994.117188 426.3125 989.195312 426.230469 988.867188 C 425.964844 987.757812 425.660156 986.503906 425.140625 985.207031 L 422.261719 977.128906 L 422.199219 976.984375 C 421.585938 975.550781 420.929688 974.136719 420.277344 972.722656 C 419.738281 971.566406 419.199219 970.410156 418.691406 969.242188 C 418.546875 968.929688 418.464844 968.738281 418.382812 968.546875 C 418.144531 968 417.90625 967.457031 417.621094 966.933594 L 416.550781 965.027344 L 414.578125 961.390625 C 408.667969 951.09375 400.410156 941.902344 389.980469 933.96875 C 381.574219 927.554688 371.945312 921.914062 358.757812 915.6875 C 345.828125 909.769531 331.976562 906.671875 317.730469 903.757812 C 316.085938 903.390625 313.796875 903.015625 311.019531 902.667969 C 309.429688 902.425781 307.554688 902.214844 305.5625 901.996094 C 304.53125 901.882812 303.464844 901.761719 302.375 901.632812 C 299.976562 901.378906 297.535156 901.140625 295.050781 900.894531 C 292.898438 900.683594 290.707031 900.46875 288.53125 900.246094 L 285.851562 898.589844 C 287.179688 896.875 288.640625 895.085938 290.28125 893.160156 C 297.558594 884.351562 303.199219 876.941406 308.082031 869.789062 L 308.804688 868.773438 C 309.261719 868.132812 309.71875 867.492188 310.160156 866.839844 L 312.144531 863.59375 L 315.875 857.539062 C 316.6875 856.3125 317.390625 854.941406 317.84375 854.023438 L 319.429688 850.957031 C 319.824219 850.167969 320.203125 849.453125 320.582031 848.738281 C 321.324219 847.335938 322.089844 845.886719 322.769531 844.316406 C 326.851562 835.332031 329.839844 825.28125 332.132812 812.769531 C 333.996094 801.609375 333.496094 790.054688 330.664062 778.34375 C 328.339844 768.636719 324.464844 758.683594 318.472656 747.027344 C 317.335938 744.628906 315.972656 742.472656 314.65625 740.386719 C 314.234375 739.71875 313.8125 739.054688 313.398438 738.382812 L 313.269531 738.179688 C 312.621094 737.226562 311.945312 736.292969 311.265625 735.359375 L 308.898438 732.09375 L 307.304688 730.117188 C 303.867188 725.691406 300.015625 721.472656 296.289062 717.390625 L 294.382812 715.304688 C 292.078125 712.8125 288.199219 709.1875 283.703125 705.316406 L 273.40625 696.527344 C 273.417969 696.527344 273.429688 696.527344 273.4375 696.527344 C 278.011719 696.640625 283.382812 696.753906 288.8125 696.753906 C 293.148438 696.753906 297.066406 696.683594 300.796875 696.535156 C 314.789062 696.121094 328.257812 694.515625 340.78125 691.757812 C 355.511719 688.363281 367.742188 683.589844 378.21875 677.160156 C 389.820312 670.101562 399.621094 660.414062 406.539062 649.148438 C 409.960938 643.652344 412.828125 637.546875 415.042969 631.035156 C 417.195312 624.730469 418.765625 618.183594 419.71875 611.578125 C 421.457031 599.898438 421.566406 586.992188 420.039062 573.246094 C 419.6875 569.9375 419.191406 566.59375 418.75 563.761719 C 418.480469 562.128906 418.21875 560.554688 417.917969 558.984375 C 417.742188 557.902344 417.472656 556.597656 417.210938 555.316406 L 416.796875 553.320312 C 416.578125 552.230469 416.355469 551.140625 416.078125 550.015625 L 415.714844 548.464844 C 415.488281 547.484375 415.261719 546.5 414.996094 545.480469 L 413.6875 540.605469 L 412.132812 535.570312 L 409.433594 527.664062 L 411.855469 530.230469 L 427.863281 546.699219 C 429.113281 547.988281 430.5 549.390625 432.128906 550.863281 L 438.875 557.050781 L 447.925781 564.777344 C 448.976562 565.597656 450.027344 566.429688 451.074219 567.257812 C 453.09375 568.859375 455.117188 570.460938 457.175781 572.011719 C 470.105469 581.695312 483.636719 590.019531 497.414062 596.761719 C 504.289062 599.976562 511.625 603.269531 519.230469 605.84375 L 522.035156 606.847656 L 524.765625 607.703125 L 530.472656 609.464844 C 531.40625 609.707031 532.339844 609.957031 533.269531 610.207031 C 536.007812 610.941406 538.835938 611.703125 541.734375 612.289062 C 544.570312 612.972656 547.40625 613.472656 550.152344 613.957031 C 551.140625 614.132812 552.132812 614.304688 553.121094 614.492188 L 555.925781 614.878906 C 558.863281 615.285156 561.898438 615.703125 564.980469 615.941406 C 571.207031 616.511719 577.003906 616.792969 582.632812 616.792969 C 584.546875 616.792969 586.464844 616.761719 588.382812 616.691406 C 605.71875 616.1875 623.738281 612.757812 641.90625 606.492188 C 658.054688 600.929688 674.203125 593.3125 691.277344 583.210938 C 694.78125 581.144531 707.488281 573.382812 723.589844 560.449219 C 735.6875 550.753906 748.292969 539.410156 759.425781 528.21875 C 759.488281 528.863281 759.550781 529.503906 759.609375 530.144531 C 759.886719 533.050781 760.171875 536.054688 760.605469 539.058594 C 762.421875 556.160156 766.144531 570.648438 771.984375 583.34375 C 772.703125 585.121094 773.574219 586.679688 774.414062 588.183594 L 774.714844 588.71875 C 775.0625 589.320312 775.351562 589.855469 775.640625 590.390625 C 776.25 591.511719 776.878906 592.671875 777.667969 593.847656 L 780.796875 598.414062 L 781.730469 599.753906 L 784.523438 603.074219 C 790.09375 609.519531 796.058594 614.605469 802.292969 618.238281 C 814.511719 625.578125 829.574219 629.808594 845.796875 630.429688 C 847.367188 630.496094 848.949219 630.527344 850.53125 630.527344 C 856.308594 630.527344 862.3125 630.101562 868.371094 629.269531 C 870.34375 629.019531 872.300781 628.683594 873.945312 628.390625 C 874.828125 628.25 875.789062 628.054688 876.75 627.859375 L 878.699219 627.46875 C 879.566406 627.289062 880.371094 627.113281 881.195312 626.898438 L 885.738281 625.773438 L 889.023438 624.777344 C 887.804688 627.226562 886.542969 629.898438 885.4375 632.570312 C 885.203125 633.089844 884.980469 633.640625 884.761719 634.191406 L 884.15625 635.683594 C 883.894531 636.324219 883.640625 636.960938 883.539062 637.257812 L 882.46875 640.132812 C 880.957031 644.300781 879.585938 648.453125 878.378906 652.515625 C 875.847656 661.027344 873.921875 669.542969 872.652344 677.824219 C 869.78125 696.765625 870.515625 714.011719 874.835938 729.101562 C 878.375 741.480469 884.339844 752.640625 892.570312 762.273438 C 900.285156 771.328125 910.148438 779.28125 921.886719 785.914062 C 928.472656 789.617188 934.5625 792.671875 940.515625 795.246094 C 947.566406 798.347656 955.925781 801.390625 964.667969 804.03125 C 972.203125 806.34375 979.417969 808.15625 985.265625 809.519531 C 970.597656 813.5 958.679688 817.953125 948.167969 823.359375 C 930.992188 832.203125 917.96875 841.730469 908.359375 852.488281 L 906.089844 854.96875 L 903.976562 857.660156 C 903.464844 858.328125 902.976562 858.925781 902.488281 859.523438 C 901.609375 860.605469 900.699219 861.726562 899.835938 862.976562 L 896.199219 868.261719 C 895.324219 869.53125 894.589844 870.804688 893.878906 872.035156 C 893.507812 872.679688 893.140625 873.320312 892.753906 873.953125 C 888.089844 882.132812 884.550781 890.355469 882.140625 898.53125 C 880.507812 904.574219 878.894531 910.976562 877.964844 917.617188 C 877.578125 919.710938 877.339844 921.78125 877.113281 923.78125 C 876.984375 924.898438 876.859375 926.015625 876.703125 927.128906 L 876.679688 927.296875 L 876.667969 927.464844 C 876.589844 928.570312 876.492188 929.671875 876.398438 930.773438 C 876.21875 932.804688 876.035156 934.902344 875.957031 937.046875 C 875.886719 938.039062 875.800781 939.167969 875.710938 940.402344 C 875.296875 945.960938 874.726562 953.578125 874.636719 960.726562 C 874.519531 965.664062 874.636719 970.28125 874.71875 973.65625 C 874.738281 974.503906 874.761719 975.40625 874.773438 976.164062 L 874.589844 976.199219 L 874.402344 976.550781 C 873.15625 976.25 871.839844 975.886719 870.425781 975.464844 C 857.664062 971.828125 844.144531 968.222656 830.703125 967.382812 C 829.457031 967.324219 828.304688 967.300781 827.152344 967.300781 C 820.953125 967.300781 814.492188 968.054688 807.953125 969.539062 C 800.1875 971.449219 793.070312 975.59375 787.277344 981.542969 C 781.402344 987.53125 777.28125 994.753906 774.351562 1000.375 C 770.339844 1008.328125 768.652344 1017.042969 767.023438 1025.46875 L 766.746094 1026.902344 C 766.226562 1029.382812 765.910156 1033.402344 765.542969 1038.058594 C 765.378906 1040.121094 765.203125 1042.335938 765 1044.550781 L 764.152344 1045.773438 C 762.507812 1044.453125 760.878906 1043.117188 759.265625 1041.765625 L 753.15625 1036.859375 C 740.085938 1026.316406 727.855469 1017.59375 715.777344 1010.207031 C 701.875 1001.769531 688.042969 994.96875 674.652344 989.972656 C 659.023438 984.25 641.964844 980.46875 623.925781 978.714844 C 619.199219 978.277344 614.359375 978.054688 609.515625 978.054688 C 596.746094 978.054688 583.476562 979.585938 570.078125 982.601562 C 554.433594 986.113281 537.835938 991.765625 519.347656 999.875 C 500.027344 1008.363281 482.285156 1020.546875 465.996094 1032.453125 C 461.695312 1035.597656 455.152344 1040.988281 448.496094 1046.871094 C 443.074219 1051.644531 436.730469 1057.425781 429.183594 1064.484375 Z M 429.183594 1064.484375 " fill-opacity="1" fill-rule="nonzero" />
  <path fill="#000000" d="M 993.941406 812.539062 C 994.917969 812.304688 995.886719 812.015625 996.847656 811.710938 L 997.824219 811.761719 C 999.558594 811.839844 1001.902344 811.777344 1002.480469 810.171875 C 1002.707031 809.546875 1002.546875 809.097656 1002.207031 808.75 C 1002.238281 808.449219 1002.226562 808.101562 1002.152344 807.691406 C 1001.886719 806.203125 1001.179688 806.441406 1000.5 806.457031 C 998.917969 806.464844 997.308594 806.53125 995.691406 806.648438 C 989.820312 805.339844 978.363281 802.910156 966.140625 799.15625 C 958.144531 796.742188 949.839844 793.789062 942.539062 790.574219 C 935.214844 787.402344 928.902344 784.019531 924.390625 781.480469 C 913.78125 775.484375 904.160156 768.023438 896.441406 758.96875 C 888.71875 749.925781 883.035156 739.257812 879.730469 727.699219 C 875.257812 712.074219 875.179688 695.132812 877.683594 678.59375 C 878.957031 670.308594 880.851562 662.070312 883.257812 653.964844 C 884.460938 649.910156 885.796875 645.886719 887.242188 641.90625 L 888.347656 638.925781 C 888.476562 638.558594 888.886719 637.574219 889.171875 636.867188 C 889.496094 636.078125 889.753906 635.394531 890.144531 634.515625 C 891.523438 631.171875 893.167969 627.820312 894.925781 624.375 L 897.039062 620.21875 L 898.085938 618.171875 C 898.394531 617.53125 898.855469 616.761719 899.027344 616.253906 L 889.148438 619.417969 L 884.386719 620.863281 L 879.910156 621.972656 C 879.167969 622.164062 878.433594 622.320312 877.707031 622.476562 L 875.722656 622.871094 C 874.835938 623.054688 873.945312 623.234375 873.050781 623.378906 C 871.265625 623.699219 869.476562 624 867.675781 624.226562 C 860.488281 625.214844 853.21875 625.632812 845.992188 625.34375 C 831.558594 624.789062 817.203125 621.253906 804.855469 613.835938 C 798.609375 610.203125 793.164062 605.289062 788.417969 599.792969 L 786.660156 597.703125 L 785.777344 596.660156 L 784.996094 595.535156 L 781.894531 591.011719 C 780.878906 589.492188 780.082031 587.828125 779.164062 586.242188 C 778.269531 584.636719 777.34375 583.046875 776.664062 581.332031 C 770.484375 567.9375 767.222656 553.226562 765.660156 538.425781 C 764.980469 533.726562 764.667969 528.996094 764.132812 524.261719 C 764.015625 523.09375 763.648438 521.996094 762.839844 521.550781 C 762.957031 520.839844 762.808594 520.226562 762.21875 519.820312 C 761.023438 518.914062 759.859375 520.507812 758.578125 521.820312 C 746.765625 533.949219 733.074219 546.324219 720.398438 556.480469 C 707.726562 566.660156 695.976562 574.527344 688.683594 578.828125 C 673.234375 587.96875 657.09375 595.875 640.246094 601.679688 C 623.421875 607.480469 605.851562 611.09375 588.195312 611.601562 C 580.570312 611.882812 572.945312 611.558594 565.371094 610.863281 C 561.578125 610.570312 557.816406 609.984375 554.046875 609.484375 C 550.304688 608.792969 546.542969 608.21875 542.839844 607.316406 C 539.105469 606.566406 535.445312 605.5 531.757812 604.539062 L 526.289062 602.847656 L 523.558594 601.988281 L 520.859375 601.019531 C 513.621094 598.570312 506.609375 595.441406 499.652344 592.191406 C 485.851562 585.433594 472.664062 577.25 460.238281 567.945312 C 457.140625 565.609375 454.121094 563.15625 451.058594 560.765625 L 442.179688 553.179688 L 437.871094 549.226562 L 435.542969 547.089844 C 434.121094 545.800781 432.871094 544.550781 431.515625 543.152344 L 415.5625 526.738281 L 406.023438 516.621094 L 401.261719 511.585938 L 400.074219 510.332031 L 399.246094 509.542969 L 397.117188 507.476562 L 405.378906 531.523438 L 407.265625 537.070312 L 408.824219 542.105469 L 410.066406 546.761719 C 410.464844 548.292969 410.777344 549.746094 411.136719 551.242188 C 411.507812 552.738281 411.769531 554.171875 412.074219 555.628906 C 412.367188 557.066406 412.691406 558.570312 412.917969 559.9375 C 413.207031 561.46875 413.460938 563.007812 413.71875 564.546875 C 414.199219 567.625 414.648438 570.710938 414.980469 573.808594 C 416.351562 586.175781 416.488281 598.6875 414.679688 610.851562 C 413.765625 617.191406 412.265625 623.40625 410.21875 629.398438 C 408.183594 635.394531 405.523438 641.148438 402.199219 646.484375 C 395.617188 657.199219 386.425781 666.207031 375.554688 672.820312 C 364.695312 679.484375 352.371094 683.859375 339.6875 686.785156 C 326.949219 689.589844 313.816406 691.058594 300.597656 691.449219 C 291.625 691.800781 282.605469 691.660156 273.597656 691.4375 C 271.097656 691.359375 267.734375 691.441406 266.957031 693.203125 C 266.808594 693.539062 266.800781 693.824219 266.878906 694.078125 C 266.484375 694.230469 266.097656 694.566406 265.757812 695.1875 C 265.085938 696.378906 265.703125 696.640625 266.214844 697.082031 C 270.992188 701.160156 275.964844 705.402344 280.378906 709.171875 C 284.820312 712.996094 288.535156 716.484375 290.613281 718.726562 C 294.976562 723.523438 299.394531 728.234375 303.339844 733.308594 L 304.851562 735.1875 L 306.265625 737.132812 C 307.199219 738.433594 308.160156 739.71875 309.058594 741.042969 C 310.722656 743.761719 312.550781 746.398438 313.902344 749.28125 C 318.925781 759.039062 323.195312 769.019531 325.714844 779.539062 C 328.25 790.023438 328.925781 801.058594 327.125 811.851562 C 325.234375 822.160156 322.546875 832.496094 318.09375 842.296875 C 317.160156 844.457031 315.957031 846.503906 314.90625 848.621094 L 313.277344 851.773438 C 312.753906 852.832031 312.195312 853.875 311.539062 854.871094 L 307.796875 860.945312 L 305.9375 863.992188 C 305.269531 864.980469 304.558594 865.941406 303.875 866.921875 C 298.488281 874.8125 292.566406 882.402344 286.40625 889.859375 C 284.277344 892.355469 282.199219 894.914062 280.226562 897.582031 C 279.679688 898.320312 279.066406 899.433594 280.070312 900.78125 C 280.300781 901.089844 280.519531 901.277344 280.738281 901.414062 C 280.390625 901.785156 280.175781 902.34375 280.257812 903.226562 C 280.375 904.691406 281.089844 904.550781 281.8125 904.632812 C 288.363281 905.402344 295.492188 906.027344 301.765625 906.6875 C 304.902344 907.0625 307.835938 907.335938 310.382812 907.71875 C 312.933594 908.039062 315.101562 908.386719 316.710938 908.75 C 330.375 911.539062 344.046875 914.554688 356.582031 920.292969 C 367.3125 925.359375 377.632812 930.949219 386.898438 938.019531 C 396.144531 945.054688 404.277344 953.675781 410.101562 963.820312 L 412.113281 967.523438 L 413.144531 969.359375 C 413.480469 969.976562 413.726562 970.640625 414.023438 971.277344 C 415.152344 973.859375 416.40625 976.390625 417.519531 978.988281 L 420.382812 987.015625 C 420.921875 988.335938 421.1875 989.75 421.546875 991.132812 L 422.558594 995.300781 L 423.4375 998.96875 L 423.992188 1002.714844 L 425.09375 1010.21875 C 425.371094 1012.738281 425.445312 1015.285156 425.640625 1017.820312 L 425.898438 1021.632812 C 426.007812 1022.902344 426.082031 1024.175781 426.035156 1025.457031 L 426.011719 1033.136719 L 426.019531 1036.984375 C 426.042969 1038.269531 425.878906 1039.550781 425.820312 1040.835938 L 425.367188 1048.558594 L 425.175781 1052.433594 C 425.089844 1053.722656 424.902344 1055.003906 424.777344 1056.292969 C 424.398438 1059.792969 424.105469 1063.308594 423.972656 1066.867188 C 423.933594 1067.851562 424.0625 1069.210938 425.769531 1069.800781 C 426.195312 1069.949219 426.53125 1069.984375 426.824219 1069.960938 C 426.867188 1070.441406 427.097656 1070.910156 427.632812 1071.304688 C 428.746094 1072.199219 429.382812 1071.277344 430.148438 1070.5625 C 437.183594 1063.953125 444.902344 1056.8125 451.867188 1050.6875 C 458.824219 1044.539062 465.082031 1039.429688 468.996094 1036.5625 C 485.582031 1024.445312 502.652344 1012.773438 521.394531 1004.539062 C 537.554688 997.445312 554.089844 991.410156 571.199219 987.570312 C 588.273438 983.722656 605.945312 982.15625 623.433594 983.785156 C 640.214844 985.414062 656.890625 988.894531 672.871094 994.742188 C 686.851562 999.957031 700.269531 1006.753906 713.121094 1014.546875 C 725.949219 1022.398438 738.167969 1031.316406 749.96875 1040.832031 C 751.976562 1042.441406 753.984375 1044.054688 756 1045.667969 C 757.972656 1047.324219 759.96875 1048.957031 761.992188 1050.5625 C 763.117188 1051.453125 764.746094 1052.515625 766.207031 1051.515625 C 766.4375 1051.355469 766.597656 1051.1875 766.714844 1051.015625 C 767.035156 1051.25 767.527344 1051.382812 768.324219 1051.28125 C 769.582031 1051.136719 769.457031 1050.699219 769.515625 1050.234375 C 770.566406 1041.789062 770.878906 1031.996094 771.746094 1027.871094 C 773.4375 1019.167969 774.992188 1010.410156 778.863281 1002.730469 C 782.273438 996.191406 786.003906 990.109375 790.925781 985.09375 C 795.804688 980.082031 802.011719 976.242188 809.082031 974.503906 C 815.871094 972.960938 823.054688 972.132812 830.382812 972.464844 C 843.261719 973.269531 856.109375 976.675781 868.960938 980.339844 C 871.140625 980.992188 873.347656 981.578125 875.613281 982.039062 C 876.242188 982.164062 877.148438 982.1875 877.890625 980.835938 C 877.90625 980.808594 877.910156 980.789062 877.925781 980.761719 C 879.839844 980.410156 879.710938 979.269531 879.824219 978.503906 C 880.039062 977.070312 879.523438 969.40625 879.726562 960.789062 C 879.835938 952.160156 880.671875 942.683594 881.042969 937.3125 C 881.152344 934.136719 881.519531 930.988281 881.746094 927.828125 C 882.179688 924.699219 882.410156 921.53125 882.992188 918.433594 C 883.859375 912.167969 885.378906 906.058594 887.023438 899.972656 C 889.429688 891.8125 892.882812 884.007812 897.09375 876.617188 C 898.203125 874.804688 899.183594 872.898438 900.394531 871.144531 L 904.027344 865.867188 C 905.242188 864.105469 906.675781 862.511719 907.980469 860.804688 L 909.972656 858.265625 L 912.15625 855.882812 C 922.660156 844.128906 936.207031 835.246094 950.5 827.886719 C 964.109375 820.886719 978.925781 816.226562 993.941406 812.539062 Z M 901.667969 849.0625 C 893.578125 857.953125 886.980469 868.066406 881.5625 878.664062 C 876.179688 888.824219 873.15625 899.984375 871.039062 911.0625 C 867.347656 930.5625 867.6875 950.578125 872.085938 969.582031 C 872.574219 971.714844 873.171875 973.828125 873.871094 975.914062 C 873.847656 975.898438 873.828125 975.886719 873.800781 975.871094 C 872.789062 975.25 871.640625 974.546875 870.40625 973.792969 C 869.15625 973.039062 867.804688 972.234375 866.34375 971.539062 C 863.453125 970.09375 860.355469 968.570312 857.457031 967.296875 C 854.5 966.164062 851.769531 965.207031 849.753906 964.628906 C 840.167969 962.179688 830.070312 960.894531 819.835938 961.769531 L 814.671875 962.386719 C 813.8125 962.457031 812.953125 962.636719 812.101562 962.84375 L 809.539062 963.417969 L 806.984375 964 C 806.132812 964.195312 805.308594 964.546875 804.472656 964.816406 C 802.820312 965.429688 801.125 965.90625 799.523438 966.652344 C 793.015625 969.414062 787.171875 973.761719 782.605469 978.980469 C 778.457031 983.75 775.074219 989.003906 772.484375 994.546875 C 769.953125 1000.109375 768.144531 1005.90625 767.050781 1011.785156 C 765 1022.914062 764.425781 1034.125 765.292969 1045.195312 C 765.355469 1046.035156 765.492188 1046.867188 765.65625 1047.695312 C 764.871094 1046.589844 762.613281 1043.835938 759.316406 1040.164062 C 757.511719 1038.253906 755.453125 1036.070312 753.230469 1033.710938 C 750.984375 1031.367188 748.433594 1028.980469 745.847656 1026.457031 C 740.605469 1021.492188 734.789062 1016.46875 729.253906 1012.09375 C 723.691406 1007.761719 718.445312 1004.042969 714.449219 1001.601562 C 695.753906 989.972656 675.105469 981.0625 653.449219 976.128906 C 646.132812 974.539062 638.769531 973.171875 631.332031 972.367188 C 623.894531 971.601562 616.425781 971.074219 608.957031 971.21875 C 594.027344 971.335938 579.167969 973.386719 564.839844 977.125 C 538.800781 983.996094 514.082031 995.097656 492.007812 1009.941406 C 471.117188 1024.003906 451.851562 1040.308594 434.914062 1058.730469 C 433.097656 1060.71875 431.414062 1062.820312 429.785156 1064.960938 C 430.097656 1064.046875 430.449219 1062.992188 430.832031 1061.800781 C 431.921875 1058.347656 433.410156 1053.890625 434.351562 1048.988281 C 436.734375 1039.28125 438.035156 1027.984375 438.066406 1021.476562 C 437.96875 1017.644531 437.835938 1013.804688 437.664062 1009.972656 C 437.207031 1006.140625 436.679688 1002.308594 436.144531 998.488281 C 435.953125 996.566406 435.351562 994.691406 434.953125 992.796875 L 433.589844 987.136719 C 433.199219 985.238281 432.511719 983.402344 431.875 981.558594 L 429.941406 976.046875 L 429.289062 974.191406 L 428.472656 972.390625 L 426.820312 968.800781 C 425.699219 966.421875 424.714844 963.980469 423.292969 961.746094 L 419.316406 954.925781 L 414.699219 948.523438 C 408.265625 940.214844 400.640625 932.890625 392.132812 926.960938 C 384.3125 921.699219 376.132812 917.171875 367.640625 913.429688 C 359.140625 909.714844 350.296875 906.953125 341.34375 904.960938 C 332.851562 903.09375 324.296875 901.730469 315.707031 900.90625 C 307.121094 900.074219 298.507812 899.6875 289.917969 899.9375 C 287.863281 899.976562 285.808594 900.242188 283.769531 900.554688 C 284.734375 899.902344 286.257812 898.769531 288.164062 897.285156 C 290.789062 895.179688 294.320312 892.59375 297.628906 889.339844 C 299.320312 887.738281 301.0625 886.09375 302.785156 884.460938 C 303.644531 883.632812 304.5 882.804688 305.34375 881.992188 C 306.1875 881.171875 306.917969 880.269531 307.683594 879.433594 C 310.691406 876.035156 313.390625 872.894531 315.214844 870.503906 C 323.421875 858.929688 330.160156 846.078125 334.398438 832.269531 L 335.464844 828.78125 L 335.996094 827.039062 L 336.390625 825.25 L 337.914062 818.089844 C 338.210938 816.90625 338.339844 815.6875 338.476562 814.472656 L 338.90625 810.832031 L 339.324219 807.195312 C 339.433594 805.980469 339.402344 804.75 339.445312 803.53125 C 339.945312 793.769531 338.632812 783.941406 335.921875 774.667969 C 331.136719 757.730469 322.441406 742.28125 311.25 729.324219 C 300.515625 717.15625 288.328125 706.476562 274.910156 697.722656 C 274.082031 697.179688 273.21875 696.691406 272.34375 696.222656 C 274.863281 696.726562 280.878906 697.625 289.121094 698.355469 C 298.25 699.183594 310.125 699.734375 322.859375 698.976562 C 329.226562 698.667969 335.796875 697.867188 342.304688 696.804688 C 348.816406 695.710938 355.234375 694.101562 361.300781 692.195312 C 367.367188 690.277344 373.011719 687.835938 378.023438 685.300781 C 383.046875 682.773438 387.300781 679.894531 390.808594 677.382812 C 394.859375 674.296875 398.707031 670.917969 402.253906 667.226562 C 405.753906 663.488281 408.953125 659.46875 411.796875 655.21875 C 417.453125 646.6875 421.585938 637.261719 424.304688 627.597656 C 429.726562 608.179688 429.890625 588.136719 427.449219 568.894531 C 427.074219 565.890625 426.597656 562.90625 426.09375 559.925781 L 425.691406 557.695312 L 425.625 557.464844 L 425.484375 556.996094 C 425.28125 556.335938 425.03125 555.539062 424.699219 554.625 L 424.59375 554.335938 L 424.542969 554.199219 L 424.613281 554.257812 L 424.90625 554.519531 L 425.5625 555.113281 L 427.210938 556.53125 L 432.453125 561.285156 C 434.261719 562.980469 436.191406 564.546875 438.078125 566.160156 C 439.984375 567.75 441.84375 569.390625 443.785156 570.9375 L 449.648438 575.539062 C 457.550781 581.566406 465.683594 587.316406 474.257812 592.402344 C 482.792969 597.53125 491.609375 602.234375 500.796875 606.128906 C 522.414062 615.484375 545.660156 621.472656 569.234375 622.488281 C 581.007812 623.019531 592.8125 622.394531 604.429688 620.679688 C 616.046875 618.9375 627.449219 616.039062 638.503906 612.273438 C 659.441406 605.042969 679.128906 594.75 697.375 582.515625 C 715.59375 570.222656 732.460938 556.03125 747.734375 540.339844 C 752.289062 535.640625 756.515625 530.640625 760.542969 525.507812 C 759.851562 537.125 760.890625 549.730469 763.0625 560.808594 C 763.71875 563.675781 764.246094 566.472656 764.976562 569.09375 C 765.785156 571.703125 766.550781 574.179688 767.265625 576.488281 C 767.976562 578.800781 768.964844 580.851562 769.679688 582.757812 C 770.457031 584.644531 771.050781 586.367188 771.804688 587.757812 L 774.019531 592.25 C 774.410156 592.992188 774.738281 593.761719 775.175781 594.480469 L 776.511719 596.621094 L 779.214844 600.894531 C 780.199219 602.269531 781.28125 603.582031 782.316406 604.921875 C 784.304688 607.679688 786.824219 610.007812 789.167969 612.480469 C 790.378906 613.671875 791.738281 614.71875 793.023438 615.839844 L 794.984375 617.492188 C 795.644531 618.03125 796.371094 618.484375 797.0625 618.984375 C 808.15625 627.042969 821.257812 631.800781 834.417969 634.144531 C 844.0625 635.859375 853.867188 636.234375 863.484375 635.425781 C 868.308594 635.082031 873.082031 634.394531 877.824219 633.527344 C 878.039062 633.488281 877.96875 633.5 877.980469 633.496094 L 877.980469 633.492188 L 877.984375 633.484375 L 878 633.46875 L 878.050781 633.429688 L 878.269531 633.296875 C 878.3125 633.296875 878.328125 633.355469 878.332031 633.464844 L 878.328125 633.558594 C 878.332031 633.574219 878.207031 633.910156 878.152344 634.074219 L 876.527344 638.332031 C 874.269531 644.417969 872.304688 650.601562 870.621094 656.875 C 867.273438 669.414062 865.058594 682.3125 864.472656 695.425781 C 863.914062 706.335938 864.855469 717.441406 867.601562 728.175781 C 868.96875 733.539062 870.789062 738.804688 873.050781 743.875 C 875.332031 748.9375 878.066406 753.792969 881.179688 758.378906 C 882.496094 760.425781 884.023438 762.320312 885.480469 764.261719 C 887.058594 766.105469 888.558594 768.019531 890.257812 769.742188 C 893.523438 773.324219 897.148438 776.527344 900.863281 779.578125 C 908.390625 785.566406 916.613281 790.535156 925.171875 794.597656 C 941.699219 802.402344 959.320312 806.9375 977 809.636719 C 973.085938 810.542969 969.777344 811.449219 967.5625 812.078125 C 954.40625 815.074219 942.070312 821.011719 929.917969 827.273438 C 919.394531 832.746094 909.714844 840.136719 901.667969 849.0625 Z M 901.667969 849.0625 " fill-opacity="1" fill-rule="nonzero" />
  <g clip-path="url(#id1)">
    <path fill="#000000" d="M 302.878906 535.371094 C 307.355469 542.03125 311.574219 548.84375 316.390625 555.300781 C 320.773438 561.179688 324.511719 567.441406 328.847656 573.347656 C 332.957031 578.945312 336.773438 584.714844 340.761719 590.382812 C 341.394531 591.285156 342.230469 592.066406 343.023438 592.867188 C 343.285156 593.132812 343.855469 593.179688 344.957031 592.519531 C 345.976562 591.910156 345.742188 591.671875 345.667969 591.371094 C 344.324219 585.851562 340.824219 580.519531 339.726562 577.996094 C 337.390625 572.640625 334.066406 567.851562 331.644531 562.535156 C 327.453125 553.34375 320.933594 545.515625 315.875 536.832031 C 313.550781 532.589844 310.613281 528.710938 308.019531 524.628906 C 303.46875 517.46875 298.949219 510.292969 293.710938 503.539062 C 292.824219 502.394531 291.875 501.285156 290.816406 500.242188 C 290.523438 499.957031 290 499.644531 288.710938 500.289062 C 287.292969 501.003906 287.464844 501.539062 287.425781 501.941406 C 287.292969 503.453125 291.109375 515.785156 293.515625 520.214844 C 296.351562 525.433594 299.558594 530.433594 302.878906 535.371094 Z M 302.878906 535.371094 " fill-opacity="1" fill-rule="nonzero" />
  </g>
  <path fill="#000000" d="M 305.058594 605.578125 C 314.273438 609.691406 323.472656 613.839844 333.097656 617.097656 C 334.730469 617.648438 336.402344 618.128906 338.132812 618.464844 C 338.617188 618.558594 339.335938 618.523438 340.191406 617.035156 C 341.132812 615.398438 340.609375 614.976562 340.378906 614.554688 C 339.519531 612.972656 327.636719 603.246094 322.339844 600.433594 C 316.105469 597.121094 309.640625 594.265625 303.105469 591.550781 C 294.292969 587.890625 285.636719 583.902344 276.617188 580.660156 C 268.414062 577.707031 260.589844 573.953125 252.414062 570.941406 C 244.664062 568.089844 237.089844 564.875 229.410156 561.871094 C 228.191406 561.394531 226.851562 561.167969 225.535156 560.894531 C 225.105469 560.804688 224.507812 561.128906 223.847656 562.507812 C 223.238281 563.785156 223.628906 563.867188 223.894531 564.113281 C 228.855469 568.707031 235.824219 571.691406 238.574219 573.476562 C 244.40625 577.253906 250.847656 579.820312 256.742188 583.5 C 266.933594 589.863281 278.539062 593.347656 289.257812 598.636719 C 294.347656 601.316406 299.808594 603.234375 305.058594 605.578125 Z M 305.058594 605.578125 " fill-opacity="1" fill-rule="nonzero" />
  <g clip-path="url(#id2)">
    <path fill="#000000" d="M 1073.875 915.738281 C 1068.105469 911.949219 1060.574219 910.117188 1057.503906 908.785156 C 1050.988281 905.960938 1044.066406 904.464844 1037.507812 901.75 C 1026.164062 897.058594 1013.882812 895.511719 1002.1875 891.988281 C 996.605469 890.148438 990.78125 889.140625 985.09375 887.664062 C 975.113281 885.074219 965.144531 882.445312 954.894531 880.789062 C 953.15625 880.507812 951.394531 880.308594 949.589844 880.261719 C 949.089844 880.25 948.367188 880.40625 947.757812 882.050781 C 947.085938 883.859375 947.6875 884.195312 947.988281 884.582031 C 949.121094 886.03125 962.734375 893.824219 968.550781 895.765625 C 975.394531 898.050781 982.386719 899.835938 989.429688 901.464844 C 998.929688 903.667969 1008.324219 906.222656 1017.960938 907.96875 C 1026.726562 909.558594 1035.238281 912.023438 1043.988281 913.675781 C 1052.277344 915.238281 1060.457031 917.199219 1068.699219 918.929688 C 1070.007812 919.203125 1071.394531 919.207031 1072.769531 919.261719 C 1073.214844 919.28125 1073.761719 918.851562 1074.195312 917.351562 C 1074.59375 915.960938 1074.1875 915.945312 1073.875 915.738281 Z M 1073.875 915.738281 " fill-opacity="1" fill-rule="nonzero" />
  </g>
  <g clip-path="url(#id3)">
    <path fill="#000000" d="M 871.800781 1086.609375 C 870.207031 1081.664062 867.40625 1077.320312 865.707031 1072.417969 C 862.765625 1063.945312 856.988281 1056.910156 852.988281 1048.972656 C 851.195312 1045.085938 848.65625 1041.582031 846.539062 1037.863281 C 842.820312 1031.34375 839.136719 1024.800781 834.582031 1018.710938 C 833.808594 1017.679688 832.960938 1016.679688 831.980469 1015.757812 C 831.707031 1015.503906 831.1875 1015.238281 829.632812 1015.933594 C 827.925781 1016.699219 828.019531 1017.199219 827.902344 1017.585938 C 827.476562 1019.027344 829.417969 1030.511719 831.265625 1034.574219 C 833.441406 1039.355469 836.066406 1043.910156 838.835938 1048.394531 C 842.570312 1054.445312 845.984375 1060.65625 850.128906 1066.496094 C 853.898438 1071.808594 856.878906 1077.527344 860.59375 1082.871094 C 864.113281 1087.933594 867.277344 1093.179688 870.652344 1098.320312 C 871.1875 1099.136719 871.964844 1099.828125 872.699219 1100.539062 C 872.9375 1100.773438 873.5625 1100.785156 874.90625 1100.089844 C 876.152344 1099.445312 875.9375 1099.230469 875.914062 1098.953125 C 875.445312 1093.789062 872.554688 1088.941406 871.800781 1086.609375 Z M 871.800781 1086.609375 " fill-opacity="1" fill-rule="nonzero" />
  </g>
  <g fill="#fffb00" fill-opacity="1">
    <g transform="translate(460.751869, 815.866355)">
      <g>
        <path d="M 2.6875 0 L 11.359375 0 L 11.359375 -10.59375 L 32.875 -10.59375 C 41.597656 -10.59375 47.582031 -15.96875 47.582031 -24.53125 C 47.582031 -33.09375 41.597656 -38.417969 32.875 -38.417969 L 2.6875 -38.417969 Z M 11.359375 -17.890625 L 11.359375 -31.117188 L 30.128906 -31.117188 C 33.53125 -31.117188 38.910156 -31.117188 38.910156 -24.53125 C 38.910156 -17.890625 33.53125 -17.890625 30.128906 -17.890625 Z M 11.359375 -17.890625 " />
      </g>
    </g>
  </g>
  <g fill="#fffb00" fill-opacity="1">
    <g transform="translate(510.466145, 815.866355)">
      <g>
        <path d="M 2.6875 0 L 11.359375 0 L 11.359375 -10.59375 L 29.304688 -10.59375 L 35.78125 0 L 45.988281 0 L 38.800781 -11.632812 C 44.234375 -13.5 47.582031 -18.054688 47.582031 -24.53125 C 47.582031 -33.09375 41.597656 -38.417969 32.875 -38.417969 L 2.6875 -38.417969 Z M 11.359375 -17.890625 L 11.359375 -31.117188 L 30.128906 -31.117188 C 33.53125 -31.117188 38.910156 -31.117188 38.910156 -24.53125 C 38.910156 -17.890625 33.53125 -17.890625 30.128906 -17.890625 Z M 11.359375 -17.890625 " />
      </g>
    </g>
  </g>
  <g fill="#fffb00" fill-opacity="1">
    <g transform="translate(560.180422, 815.866355)">
      <g>
        <path d="M 26.289062 0.546875 C 43.136719 0.546875 50.433594 -6.75 50.433594 -19.261719 C 50.433594 -31.722656 43.136719 -38.964844 26.289062 -38.964844 C 9.382812 -38.964844 2.140625 -31.777344 2.140625 -19.261719 C 2.140625 -6.695312 9.382812 0.546875 26.289062 0.546875 Z M 26.289062 -6.75 C 15.476562 -6.75 10.8125 -10.371094 10.8125 -19.261719 C 10.8125 -28.097656 15.421875 -31.664062 26.289062 -31.664062 C 37.152344 -31.664062 41.765625 -28.042969 41.765625 -19.261719 C 41.765625 -10.425781 37.097656 -6.75 26.289062 -6.75 Z M 26.289062 -6.75 " />
      </g>
    </g>
  </g>
  <g fill="#fffb00" fill-opacity="1">
    <g transform="translate(612.748065, 815.866355)">
      <g>
        <path d="M 2.6875 0 L 11.359375 0 L 11.359375 -28.152344 L 28.867188 0 L 35.398438 0 L 52.851562 -28.152344 L 52.851562 0 L 61.519531 0 L 61.519531 -38.417969 L 49.335938 -38.417969 L 32.105469 -10.042969 L 14.871094 -38.417969 L 2.6875 -38.417969 Z M 2.6875 0 " />
      </g>
    </g>
  </g>
  <g fill="#fffb00" fill-opacity="1">
    <g transform="translate(676.948639, 815.866355)">
      <g>
        <path d="M 26.289062 0.546875 C 43.136719 0.546875 50.433594 -6.75 50.433594 -19.261719 C 50.433594 -31.722656 43.136719 -38.964844 26.289062 -38.964844 C 9.382812 -38.964844 2.140625 -31.777344 2.140625 -19.261719 C 2.140625 -6.695312 9.382812 0.546875 26.289062 0.546875 Z M 26.289062 -6.75 C 15.476562 -6.75 10.8125 -10.371094 10.8125 -19.261719 C 10.8125 -28.097656 15.421875 -31.664062 26.289062 -31.664062 C 37.152344 -31.664062 41.765625 -28.042969 41.765625 -19.261719 C 41.765625 -10.425781 37.097656 -6.75 26.289062 -6.75 Z M 26.289062 -6.75 " />
      </g>
    </g>
  </g>
</svg>