<svg xmlns="http://www.w3.org/2000/svg" xmlns:xlink="http://www.w3.org/1999/xlink" width="1587" zoomAndPan="magnify" viewBox="0 0 1190.25 1683.749945" height="2245" preserveAspectRatio="xMidYMid meet" version="1.0"><defs><g/><clipPath id="id1"><path d="M 483 481.582031 L 505 481.582031 L 505 516 L 483 516 Z M 483 481.582031 " clip-rule="nonzero"/></clipPath><clipPath id="id2"><path d="M 459.496094 503 L 503 503 L 503 525 L 459.496094 525 Z M 459.496094 503 " clip-rule="nonzero"/></clipPath><clipPath id="id3"><path d="M 723 620 L 769.929688 620 L 769.929688 635 L 723 635 Z M 723 620 " clip-rule="nonzero"/></clipPath><clipPath id="id4"><path d="M 679 669 L 698 669 L 698 700.539062 L 679 700.539062 Z M 679 669 " clip-rule="nonzero"/></clipPath></defs><path fill="#cb6ce6" d="M 534.695312 687.363281 C 534.746094 686.496094 534.824219 685.578125 534.933594 684.578125 C 534.953125 684.386719 534.972656 684.21875 534.992188 684.046875 C 535.027344 683.730469 535.0625 683.414062 535.085938 683.09375 L 535.15625 681.652344 L 535.320312 678.855469 C 535.328125 678.679688 535.339844 678.527344 535.351562 678.375 C 535.375 678.054688 535.402344 677.695312 535.398438 677.3125 L 535.394531 675.9375 L 535.402344 673.179688 C 535.421875 672.605469 535.386719 672.058594 535.347656 671.597656 L 535.253906 670.238281 C 535.226562 669.886719 535.207031 669.546875 535.1875 669.210938 C 535.152344 668.621094 535.117188 668.011719 535.050781 667.394531 L 534.425781 663.144531 L 534.085938 661.726562 C 534.085938 661.726562 533.648438 659.9375 533.621094 659.816406 C 533.523438 659.414062 533.410156 658.957031 533.222656 658.484375 L 532.175781 655.542969 L 532.152344 655.488281 C 531.925781 654.964844 531.6875 654.449219 531.449219 653.9375 C 531.253906 653.515625 531.058594 653.09375 530.871094 652.667969 C 530.820312 652.554688 530.789062 652.484375 530.761719 652.414062 C 530.675781 652.214844 530.585938 652.015625 530.484375 651.828125 L 530.09375 651.132812 L 529.375 649.808594 C 527.222656 646.058594 524.214844 642.710938 520.414062 639.816406 C 517.351562 637.480469 513.84375 635.429688 509.042969 633.160156 C 504.332031 631.003906 499.285156 629.875 494.097656 628.816406 C 493.496094 628.679688 492.664062 628.542969 491.652344 628.417969 C 491.074219 628.328125 490.390625 628.253906 489.664062 628.171875 C 489.289062 628.128906 488.902344 628.085938 488.503906 628.039062 C 487.628906 627.949219 486.742188 627.859375 485.835938 627.769531 C 485.050781 627.695312 484.253906 627.617188 483.460938 627.535156 L 482.484375 626.929688 C 482.96875 626.308594 483.5 625.65625 484.097656 624.953125 C 486.75 621.746094 488.804688 619.046875 490.582031 616.441406 L 490.84375 616.070312 C 491.011719 615.835938 491.179688 615.605469 491.339844 615.367188 L 492.0625 614.183594 L 493.421875 611.976562 C 493.714844 611.53125 493.972656 611.03125 494.136719 610.699219 L 494.714844 609.582031 C 494.859375 609.292969 494.996094 609.035156 495.132812 608.773438 C 495.40625 608.261719 495.683594 607.734375 495.929688 607.160156 C 497.417969 603.890625 498.507812 600.226562 499.34375 595.671875 C 500.019531 591.605469 499.839844 587.394531 498.808594 583.128906 C 497.960938 579.59375 496.550781 575.96875 494.367188 571.722656 C 493.953125 570.847656 493.457031 570.0625 492.976562 569.304688 C 492.824219 569.0625 492.667969 568.820312 492.519531 568.574219 L 492.472656 568.5 C 492.234375 568.152344 491.988281 567.8125 491.742188 567.472656 L 490.878906 566.28125 L 490.300781 565.5625 C 489.046875 563.953125 487.644531 562.414062 486.285156 560.929688 L 485.589844 560.167969 C 484.753906 559.261719 483.339844 557.941406 481.703125 556.53125 L 477.953125 553.328125 C 477.953125 553.328125 477.960938 553.328125 477.964844 553.328125 C 479.628906 553.367188 481.585938 553.410156 483.5625 553.410156 C 485.140625 553.410156 486.570312 553.382812 487.929688 553.332031 C 493.027344 553.179688 497.933594 552.59375 502.492188 551.589844 C 507.859375 550.355469 512.3125 548.617188 516.128906 546.273438 C 520.355469 543.703125 523.925781 540.171875 526.445312 536.070312 C 527.691406 534.066406 528.738281 531.84375 529.542969 529.472656 C 530.328125 527.175781 530.902344 524.789062 531.246094 522.382812 C 531.878906 518.128906 531.921875 513.429688 531.363281 508.421875 C 531.234375 507.214844 531.054688 506 530.894531 504.96875 C 530.796875 504.371094 530.699219 503.796875 530.589844 503.226562 C 530.527344 502.832031 530.429688 502.355469 530.332031 501.890625 L 530.183594 501.164062 C 530.105469 500.765625 530.023438 500.367188 529.921875 499.960938 L 529.789062 499.394531 C 529.707031 499.035156 529.621094 498.679688 529.527344 498.308594 L 529.050781 496.53125 L 528.484375 494.695312 L 527.5 491.816406 L 528.382812 492.753906 L 534.214844 498.75 C 534.667969 499.222656 535.175781 499.730469 535.765625 500.269531 L 538.222656 502.523438 L 541.523438 505.335938 C 541.90625 505.636719 542.285156 505.9375 542.667969 506.242188 C 543.40625 506.824219 544.140625 507.40625 544.890625 507.972656 C 549.601562 511.5 554.53125 514.53125 559.546875 516.988281 C 562.054688 518.15625 564.726562 519.359375 567.496094 520.296875 L 568.515625 520.660156 L 569.511719 520.972656 L 571.589844 521.613281 C 571.929688 521.703125 572.269531 521.792969 572.609375 521.886719 C 573.605469 522.152344 574.636719 522.429688 575.691406 522.644531 C 576.726562 522.894531 577.757812 523.074219 578.757812 523.25 C 579.121094 523.316406 579.480469 523.378906 579.839844 523.445312 L 580.863281 523.585938 C 581.933594 523.734375 583.039062 523.886719 584.160156 523.972656 C 586.429688 524.179688 588.539062 524.285156 590.589844 524.285156 C 591.289062 524.285156 591.988281 524.273438 592.683594 524.246094 C 599 524.0625 605.5625 522.8125 612.183594 520.53125 C 618.0625 518.503906 623.945312 515.730469 630.167969 512.050781 C 631.441406 511.296875 636.070312 508.472656 641.9375 503.757812 C 646.34375 500.230469 650.933594 496.097656 654.988281 492.019531 C 655.011719 492.253906 655.035156 492.488281 655.058594 492.71875 C 655.15625 493.777344 655.261719 494.875 655.417969 495.96875 C 656.082031 502.195312 657.4375 507.476562 659.566406 512.097656 C 659.824219 512.746094 660.144531 513.3125 660.449219 513.863281 L 660.558594 514.058594 C 660.6875 514.277344 660.789062 514.472656 660.894531 514.664062 C 661.117188 515.074219 661.347656 515.496094 661.632812 515.925781 L 662.773438 517.589844 L 663.113281 518.078125 L 664.132812 519.285156 C 666.160156 521.632812 668.332031 523.488281 670.605469 524.808594 C 675.054688 527.484375 680.542969 529.023438 686.449219 529.25 C 687.023438 529.273438 687.597656 529.285156 688.175781 529.285156 C 690.28125 529.285156 692.464844 529.132812 694.675781 528.828125 C 695.394531 528.738281 696.105469 528.617188 696.703125 528.507812 C 697.027344 528.457031 697.375 528.386719 697.726562 528.3125 L 698.4375 528.171875 C 698.75 528.105469 699.046875 528.042969 699.34375 527.964844 L 701 527.554688 L 702.195312 527.191406 C 701.753906 528.085938 701.292969 529.058594 700.890625 530.03125 C 700.804688 530.21875 700.726562 530.421875 700.644531 530.621094 L 700.425781 531.164062 C 700.328125 531.398438 700.234375 531.628906 700.199219 531.738281 L 699.808594 532.785156 C 699.257812 534.304688 698.757812 535.816406 698.320312 537.296875 C 697.398438 540.398438 696.695312 543.5 696.234375 546.515625 C 695.1875 553.414062 695.457031 559.699219 697.03125 565.195312 C 698.316406 569.703125 700.492188 573.769531 703.488281 577.277344 C 706.296875 580.574219 709.890625 583.472656 714.167969 585.886719 C 716.566406 587.238281 718.785156 588.347656 720.953125 589.289062 C 723.523438 590.417969 726.566406 591.527344 729.75 592.488281 C 732.496094 593.328125 735.125 593.988281 737.253906 594.488281 C 731.910156 595.9375 727.570312 597.558594 723.742188 599.527344 C 717.484375 602.75 712.742188 606.21875 709.238281 610.140625 L 708.414062 611.042969 L 707.644531 612.023438 C 707.457031 612.265625 707.28125 612.484375 707.101562 612.703125 C 706.78125 613.097656 706.449219 613.503906 706.136719 613.957031 L 704.808594 615.882812 C 704.492188 616.347656 704.222656 616.808594 703.964844 617.257812 C 703.832031 617.492188 703.695312 617.726562 703.554688 617.957031 C 701.855469 620.9375 700.566406 623.933594 699.691406 626.910156 C 699.09375 629.109375 698.507812 631.445312 698.167969 633.863281 C 698.027344 634.625 697.941406 635.378906 697.859375 636.109375 C 697.8125 636.515625 697.765625 636.921875 697.710938 637.328125 L 697.699219 637.386719 L 697.695312 637.449219 C 697.667969 637.851562 697.632812 638.253906 697.597656 638.65625 C 697.53125 639.394531 697.464844 640.160156 697.4375 640.941406 C 697.410156 641.300781 697.382812 641.710938 697.347656 642.164062 C 697.195312 644.1875 696.988281 646.960938 696.957031 649.566406 C 696.914062 651.363281 696.957031 653.046875 696.984375 654.277344 C 696.992188 654.585938 697.003906 654.914062 697.007812 655.191406 L 696.941406 655.203125 L 696.871094 655.332031 C 696.417969 655.21875 695.9375 655.089844 695.421875 654.933594 C 690.773438 653.609375 685.851562 652.296875 680.953125 651.992188 C 680.5 651.96875 680.078125 651.960938 679.660156 651.960938 C 677.402344 651.960938 675.046875 652.234375 672.667969 652.777344 C 669.839844 653.472656 667.246094 654.980469 665.132812 657.148438 C 662.996094 659.328125 661.492188 661.960938 660.425781 664.007812 C 658.964844 666.90625 658.351562 670.078125 657.757812 673.148438 L 657.65625 673.671875 C 657.464844 674.574219 657.351562 676.039062 657.21875 677.734375 C 657.160156 678.484375 657.09375 679.292969 657.019531 680.097656 L 656.710938 680.542969 C 656.113281 680.0625 655.519531 679.578125 654.933594 679.085938 L 652.707031 677.296875 C 647.945312 673.457031 643.488281 670.28125 639.089844 667.589844 C 634.027344 664.515625 628.988281 662.039062 624.109375 660.21875 C 618.417969 658.136719 612.203125 656.757812 605.632812 656.117188 C 603.910156 655.957031 602.148438 655.878906 600.382812 655.878906 C 595.730469 655.878906 590.898438 656.433594 586.019531 657.535156 C 580.316406 658.8125 574.273438 660.871094 567.539062 663.828125 C 560.5 666.917969 554.039062 671.355469 548.105469 675.691406 C 546.539062 676.839844 544.15625 678.800781 541.730469 680.945312 C 539.753906 682.683594 537.445312 684.789062 534.695312 687.363281 Z M 534.695312 687.363281 " fill-opacity="1" fill-rule="nonzero"/><path fill="#000000" d="M 740.414062 595.585938 C 740.769531 595.5 741.121094 595.394531 741.472656 595.285156 L 741.828125 595.304688 C 742.460938 595.332031 743.316406 595.308594 743.527344 594.722656 C 743.605469 594.496094 743.550781 594.332031 743.425781 594.207031 C 743.4375 594.097656 743.433594 593.96875 743.40625 593.820312 C 743.308594 593.277344 743.050781 593.367188 742.804688 593.371094 C 742.226562 593.375 741.640625 593.398438 741.050781 593.441406 C 738.914062 592.964844 734.738281 592.078125 730.289062 590.710938 C 727.375 589.832031 724.351562 588.757812 721.691406 587.585938 C 719.023438 586.429688 716.722656 585.199219 715.082031 584.273438 C 711.214844 582.089844 707.710938 579.371094 704.898438 576.074219 C 702.085938 572.78125 700.015625 568.894531 698.8125 564.683594 C 697.183594 558.992188 697.152344 552.820312 698.066406 546.796875 C 698.53125 543.777344 699.21875 540.777344 700.097656 537.824219 C 700.535156 536.347656 701.019531 534.882812 701.546875 533.429688 L 701.949219 532.347656 C 701.996094 532.210938 702.148438 531.855469 702.25 531.597656 C 702.371094 531.308594 702.460938 531.058594 702.605469 530.738281 C 703.109375 529.519531 703.707031 528.300781 704.347656 527.046875 L 705.117188 525.53125 L 705.496094 524.785156 C 705.609375 524.550781 705.777344 524.273438 705.839844 524.085938 L 702.242188 525.238281 L 700.507812 525.765625 L 698.878906 526.171875 C 698.605469 526.242188 698.339844 526.296875 698.074219 526.355469 L 697.351562 526.496094 C 697.027344 526.5625 696.707031 526.628906 696.378906 526.683594 C 695.730469 526.800781 695.078125 526.910156 694.421875 526.992188 C 691.804688 527.351562 689.15625 527.503906 686.523438 527.398438 C 681.265625 527.195312 676.035156 525.910156 671.539062 523.207031 C 669.261719 521.882812 667.277344 520.09375 665.550781 518.089844 L 664.910156 517.332031 L 664.589844 516.949219 L 664.304688 516.539062 L 663.175781 514.894531 C 662.804688 514.339844 662.515625 513.734375 662.179688 513.15625 C 661.855469 512.570312 661.515625 511.992188 661.269531 511.367188 C 659.015625 506.488281 657.832031 501.128906 657.257812 495.738281 C 657.011719 494.027344 656.898438 492.300781 656.703125 490.578125 C 656.660156 490.152344 656.527344 489.753906 656.234375 489.589844 C 656.273438 489.332031 656.222656 489.109375 656.007812 488.960938 C 655.570312 488.628906 655.148438 489.210938 654.679688 489.6875 C 650.378906 494.105469 645.390625 498.617188 640.773438 502.3125 C 636.15625 506.023438 631.878906 508.886719 629.222656 510.453125 C 623.59375 513.785156 617.714844 516.664062 611.578125 518.777344 C 605.449219 520.890625 599.046875 522.207031 592.617188 522.394531 C 589.839844 522.496094 587.0625 522.378906 584.304688 522.125 C 582.921875 522.019531 581.550781 521.804688 580.179688 521.621094 C 578.816406 521.371094 577.445312 521.160156 576.097656 520.832031 C 574.734375 520.558594 573.402344 520.167969 572.058594 519.820312 L 570.066406 519.203125 L 569.070312 518.890625 L 568.089844 518.539062 C 565.453125 517.644531 562.898438 516.503906 560.363281 515.320312 C 555.335938 512.859375 550.535156 509.878906 546.007812 506.492188 C 544.878906 505.640625 543.777344 504.746094 542.664062 503.875 L 539.429688 501.113281 L 537.859375 499.671875 L 537.011719 498.894531 C 536.492188 498.425781 536.039062 497.96875 535.542969 497.460938 L 529.734375 491.480469 L 526.257812 487.792969 L 524.523438 485.960938 L 524.089844 485.503906 L 523.789062 485.214844 L 523.011719 484.464844 L 526.023438 493.222656 L 526.710938 495.242188 L 527.277344 497.078125 L 527.730469 498.773438 C 527.875 499.332031 527.988281 499.863281 528.121094 500.40625 C 528.253906 500.949219 528.351562 501.472656 528.460938 502.003906 C 528.570312 502.527344 528.6875 503.074219 528.769531 503.574219 C 528.875 504.132812 528.96875 504.691406 529.0625 505.253906 C 529.234375 506.375 529.402344 507.5 529.519531 508.625 C 530.019531 513.132812 530.070312 517.6875 529.410156 522.121094 C 529.078125 524.429688 528.53125 526.691406 527.785156 528.875 C 527.046875 531.058594 526.074219 533.15625 524.867188 535.097656 C 522.46875 539 519.121094 542.285156 515.160156 544.691406 C 511.203125 547.121094 506.714844 548.714844 502.09375 549.78125 C 497.457031 550.800781 492.671875 551.335938 487.855469 551.476562 C 484.585938 551.605469 481.300781 551.554688 478.019531 551.472656 C 477.109375 551.445312 475.886719 551.476562 475.601562 552.117188 C 475.546875 552.238281 475.542969 552.34375 475.574219 552.4375 C 475.429688 552.492188 475.289062 552.613281 475.164062 552.839844 C 474.921875 553.273438 475.144531 553.371094 475.332031 553.53125 C 477.070312 555.015625 478.882812 556.5625 480.492188 557.933594 C 482.109375 559.328125 483.460938 560.597656 484.21875 561.414062 C 485.808594 563.160156 487.417969 564.878906 488.855469 566.726562 L 489.40625 567.410156 L 489.917969 568.117188 C 490.261719 568.59375 490.609375 569.0625 490.9375 569.542969 C 491.542969 570.535156 492.210938 571.496094 492.703125 572.542969 C 494.53125 576.097656 496.085938 579.734375 497.003906 583.566406 C 497.929688 587.386719 498.175781 591.40625 497.519531 595.335938 C 496.828125 599.09375 495.851562 602.855469 494.230469 606.425781 C 493.890625 607.214844 493.449219 607.960938 493.066406 608.730469 L 492.476562 609.878906 C 492.285156 610.265625 492.078125 610.644531 491.839844 611.007812 L 490.480469 613.21875 L 489.800781 614.328125 C 489.558594 614.6875 489.296875 615.039062 489.050781 615.394531 C 487.085938 618.269531 484.929688 621.035156 482.6875 623.75 C 481.910156 624.660156 481.152344 625.59375 480.433594 626.5625 C 480.234375 626.832031 480.011719 627.238281 480.378906 627.730469 C 480.460938 627.84375 480.542969 627.910156 480.621094 627.960938 C 480.496094 628.09375 480.417969 628.300781 480.445312 628.621094 C 480.488281 629.152344 480.75 629.105469 481.011719 629.132812 C 483.398438 629.414062 485.996094 629.640625 488.28125 629.878906 C 489.421875 630.019531 490.492188 630.117188 491.417969 630.257812 C 492.351562 630.375 493.140625 630.5 493.726562 630.632812 C 498.703125 631.648438 503.683594 632.746094 508.25 634.835938 C 512.15625 636.683594 515.917969 638.71875 519.292969 641.292969 C 522.660156 643.855469 525.621094 646.996094 527.746094 650.691406 L 528.476562 652.042969 L 528.851562 652.710938 C 528.972656 652.9375 529.0625 653.175781 529.171875 653.410156 C 529.582031 654.351562 530.039062 655.269531 530.445312 656.21875 L 531.488281 659.140625 C 531.683594 659.625 531.78125 660.136719 531.914062 660.640625 L 532.28125 662.160156 L 532.601562 663.496094 L 532.804688 664.859375 L 533.207031 667.59375 C 533.304688 668.511719 533.332031 669.441406 533.402344 670.363281 L 533.5 671.75 C 533.539062 672.214844 533.566406 672.675781 533.546875 673.144531 L 533.539062 675.941406 L 533.542969 677.34375 C 533.550781 677.8125 533.492188 678.277344 533.46875 678.746094 L 533.304688 681.558594 L 533.234375 682.96875 C 533.203125 683.441406 533.136719 683.90625 533.089844 684.378906 C 532.953125 685.652344 532.84375 686.933594 532.796875 688.226562 C 532.78125 688.585938 532.828125 689.082031 533.453125 689.296875 C 533.605469 689.351562 533.730469 689.363281 533.835938 689.355469 C 533.851562 689.53125 533.933594 689.699219 534.128906 689.84375 C 534.535156 690.171875 534.769531 689.835938 535.046875 689.574219 C 537.609375 687.167969 540.421875 684.566406 542.957031 682.335938 C 545.492188 680.097656 547.769531 678.234375 549.199219 677.191406 C 555.238281 672.777344 561.457031 668.523438 568.285156 665.523438 C 574.171875 662.941406 580.191406 660.742188 586.425781 659.34375 C 592.644531 657.941406 599.082031 657.371094 605.453125 657.964844 C 611.566406 658.558594 617.640625 659.824219 623.460938 661.957031 C 628.554688 663.855469 633.441406 666.332031 638.121094 669.171875 C 642.796875 672.03125 647.246094 675.277344 651.546875 678.746094 C 652.277344 679.332031 653.007812 679.917969 653.742188 680.507812 C 654.460938 681.109375 655.1875 681.703125 655.925781 682.289062 C 656.332031 682.613281 656.925781 683 657.460938 682.636719 C 657.542969 682.578125 657.601562 682.515625 657.644531 682.453125 C 657.761719 682.539062 657.941406 682.589844 658.230469 682.550781 C 658.6875 682.5 658.644531 682.339844 658.664062 682.167969 C 659.046875 679.09375 659.160156 675.527344 659.476562 674.023438 C 660.09375 670.855469 660.660156 667.664062 662.070312 664.867188 C 663.3125 662.484375 664.671875 660.269531 666.464844 658.441406 C 668.242188 656.617188 670.503906 655.21875 673.078125 654.585938 C 675.550781 654.023438 678.167969 653.71875 680.835938 653.839844 C 685.527344 654.136719 690.207031 655.375 694.890625 656.710938 C 695.683594 656.949219 696.488281 657.160156 697.3125 657.328125 C 697.542969 657.375 697.871094 657.382812 698.140625 656.890625 C 698.148438 656.882812 698.148438 656.875 698.15625 656.863281 C 698.851562 656.734375 698.804688 656.320312 698.847656 656.039062 C 698.921875 655.519531 698.738281 652.726562 698.8125 649.589844 C 698.851562 646.445312 699.15625 642.992188 699.289062 641.035156 C 699.332031 639.878906 699.464844 638.734375 699.546875 637.582031 C 699.703125 636.441406 699.789062 635.289062 700 634.160156 C 700.316406 631.878906 700.871094 629.652344 701.46875 627.433594 C 702.34375 624.464844 703.601562 621.621094 705.136719 618.925781 C 705.542969 618.269531 705.898438 617.574219 706.339844 616.933594 L 707.660156 615.011719 C 708.105469 614.371094 708.625 613.789062 709.101562 613.167969 L 709.828125 612.242188 L 710.621094 611.375 C 714.449219 607.09375 719.386719 603.855469 724.589844 601.179688 C 729.546875 598.628906 734.945312 596.929688 740.414062 595.585938 Z M 706.800781 608.890625 C 703.855469 612.128906 701.453125 615.8125 699.480469 619.671875 C 697.519531 623.375 696.417969 627.441406 695.644531 631.476562 C 694.300781 638.578125 694.425781 645.871094 696.027344 652.789062 C 696.203125 653.570312 696.421875 654.339844 696.675781 655.097656 C 696.667969 655.09375 696.660156 655.085938 696.652344 655.082031 C 696.285156 654.855469 695.863281 654.601562 695.414062 654.324219 C 694.960938 654.050781 694.46875 653.757812 693.9375 653.503906 C 692.882812 652.976562 691.753906 652.421875 690.699219 651.957031 C 689.621094 651.546875 688.628906 651.199219 687.894531 650.988281 C 684.402344 650.09375 680.722656 649.628906 676.996094 649.945312 L 675.113281 650.171875 C 674.800781 650.195312 674.488281 650.261719 674.175781 650.335938 L 673.242188 650.546875 L 672.3125 650.757812 C 672.003906 650.828125 671.703125 650.957031 671.398438 651.054688 C 670.796875 651.277344 670.179688 651.453125 669.597656 651.722656 C 667.226562 652.730469 665.09375 654.3125 663.433594 656.214844 C 661.921875 657.953125 660.6875 659.867188 659.746094 661.886719 C 658.824219 663.910156 658.164062 666.023438 657.765625 668.164062 C 657.019531 672.21875 656.808594 676.300781 657.125 680.335938 C 657.148438 680.640625 657.199219 680.941406 657.257812 681.246094 C 656.972656 680.84375 656.148438 679.839844 654.949219 678.5 C 654.292969 677.804688 653.542969 677.011719 652.734375 676.152344 C 651.914062 675.296875 650.984375 674.429688 650.042969 673.507812 C 648.132812 671.699219 646.015625 669.871094 644 668.277344 C 641.972656 666.699219 640.0625 665.34375 638.605469 664.457031 C 631.796875 660.21875 624.273438 656.972656 616.386719 655.175781 C 613.722656 654.597656 611.039062 654.097656 608.328125 653.804688 C 605.621094 653.527344 602.898438 653.335938 600.179688 653.386719 C 594.742188 653.429688 589.328125 654.179688 584.109375 655.539062 C 574.625 658.042969 565.621094 662.085938 557.578125 667.492188 C 549.96875 672.617188 542.953125 678.554688 536.78125 685.265625 C 536.121094 685.988281 535.507812 686.753906 534.914062 687.535156 C 535.027344 687.199219 535.15625 686.816406 535.292969 686.382812 C 535.691406 685.125 536.234375 683.503906 536.578125 681.714844 C 537.445312 678.179688 537.917969 674.066406 537.929688 671.695312 C 537.894531 670.296875 537.847656 668.902344 537.785156 667.503906 C 537.617188 666.109375 537.425781 664.710938 537.230469 663.320312 C 537.160156 662.621094 536.941406 661.9375 536.796875 661.246094 L 536.300781 659.183594 C 536.15625 658.492188 535.90625 657.824219 535.675781 657.15625 L 534.972656 655.144531 L 534.734375 654.472656 L 534.433594 653.816406 L 533.832031 652.507812 C 533.425781 651.640625 533.066406 650.75 532.550781 649.9375 L 531.101562 647.453125 L 529.417969 645.121094 C 527.074219 642.09375 524.296875 639.425781 521.199219 637.265625 C 518.347656 635.351562 515.371094 633.699219 512.277344 632.335938 C 509.179688 630.984375 505.960938 629.976562 502.699219 629.253906 C 499.605469 628.574219 496.488281 628.074219 493.359375 627.777344 C 490.230469 627.472656 487.09375 627.332031 483.964844 627.421875 C 483.214844 627.4375 482.46875 627.535156 481.726562 627.648438 C 482.078125 627.410156 482.632812 626.996094 483.324219 626.457031 C 484.28125 625.691406 485.570312 624.746094 486.773438 623.5625 C 487.390625 622.980469 488.023438 622.378906 488.652344 621.785156 C 488.964844 621.484375 489.277344 621.183594 489.585938 620.886719 C 489.890625 620.585938 490.160156 620.257812 490.4375 619.953125 C 491.53125 618.714844 492.515625 617.574219 493.179688 616.703125 C 496.167969 612.484375 498.625 607.804688 500.167969 602.773438 L 500.554688 601.503906 L 500.75 600.867188 L 500.894531 600.214844 L 501.449219 597.609375 C 501.554688 597.179688 501.601562 596.734375 501.652344 596.289062 L 501.808594 594.964844 L 501.960938 593.640625 C 502 593.199219 501.992188 592.75 502.007812 592.304688 C 502.1875 588.75 501.710938 585.167969 500.722656 581.792969 C 498.980469 575.621094 495.8125 569.992188 491.734375 565.273438 C 487.824219 560.839844 483.386719 556.953125 478.5 553.761719 C 478.195312 553.566406 477.882812 553.386719 477.5625 553.21875 C 478.480469 553.402344 480.671875 553.726562 483.675781 553.992188 C 487 554.296875 491.328125 554.496094 495.964844 554.21875 C 498.285156 554.109375 500.675781 553.816406 503.046875 553.429688 C 505.417969 553.03125 507.757812 552.445312 509.96875 551.75 C 512.179688 551.050781 514.234375 550.160156 516.058594 549.238281 C 517.890625 548.320312 519.4375 547.269531 520.714844 546.355469 C 522.191406 545.230469 523.59375 544 524.886719 542.65625 C 526.160156 541.292969 527.324219 539.828125 528.363281 538.28125 C 530.421875 535.175781 531.925781 531.742188 532.917969 528.21875 C 534.890625 521.144531 534.953125 513.84375 534.0625 506.835938 C 533.925781 505.742188 533.753906 504.652344 533.570312 503.570312 L 533.421875 502.757812 L 533.398438 502.671875 L 533.347656 502.5 C 533.273438 502.261719 533.183594 501.96875 533.0625 501.636719 L 533.023438 501.53125 L 533.003906 501.484375 L 533.03125 501.503906 L 533.136719 501.597656 L 533.375 501.816406 L 533.976562 502.332031 L 535.886719 504.066406 C 536.542969 504.679688 537.246094 505.253906 537.933594 505.839844 C 538.628906 506.417969 539.304688 507.015625 540.015625 507.582031 L 542.148438 509.257812 C 545.027344 511.453125 547.992188 513.546875 551.113281 515.398438 C 554.222656 517.265625 557.433594 518.980469 560.78125 520.398438 C 568.65625 523.808594 577.121094 525.988281 585.710938 526.359375 C 590 526.550781 594.296875 526.324219 598.53125 525.699219 C 602.761719 525.066406 606.914062 524.007812 610.941406 522.636719 C 618.570312 520.003906 625.742188 516.253906 632.386719 511.796875 C 639.023438 507.320312 645.167969 502.152344 650.730469 496.433594 C 652.390625 494.722656 653.929688 492.902344 655.394531 491.03125 C 655.144531 495.261719 655.523438 499.855469 656.3125 503.890625 C 656.554688 504.933594 656.746094 505.953125 657.011719 506.910156 C 657.304688 507.859375 657.585938 508.761719 657.847656 509.601562 C 658.105469 510.445312 658.464844 511.191406 658.726562 511.886719 C 659.007812 512.574219 659.222656 513.199219 659.5 513.707031 L 660.304688 515.34375 C 660.445312 515.613281 660.566406 515.894531 660.726562 516.15625 L 661.214844 516.9375 L 662.199219 518.492188 C 662.554688 518.992188 662.949219 519.472656 663.328125 519.960938 C 664.050781 520.964844 664.96875 521.8125 665.824219 522.710938 C 666.265625 523.148438 666.761719 523.527344 667.230469 523.9375 L 667.941406 524.539062 C 668.183594 524.734375 668.449219 524.898438 668.699219 525.082031 C 672.742188 528.019531 677.511719 529.75 682.304688 530.605469 C 685.820312 531.230469 689.390625 531.367188 692.894531 531.070312 C 694.652344 530.945312 696.390625 530.695312 698.117188 530.378906 C 698.195312 530.363281 698.171875 530.371094 698.175781 530.367188 L 698.175781 530.363281 L 698.183594 530.359375 L 698.199219 530.34375 L 698.28125 530.296875 C 698.296875 530.296875 698.300781 530.316406 698.300781 530.355469 L 698.300781 530.390625 C 698.304688 530.398438 698.257812 530.519531 698.238281 530.578125 L 697.644531 532.128906 C 696.824219 534.347656 696.105469 536.597656 695.496094 538.882812 C 694.273438 543.449219 693.46875 548.148438 693.253906 552.925781 C 693.050781 556.902344 693.394531 560.945312 694.394531 564.855469 C 694.890625 566.808594 695.554688 568.726562 696.378906 570.574219 C 697.210938 572.417969 698.207031 574.1875 699.339844 575.859375 C 699.820312 576.605469 700.375 577.292969 700.90625 578 C 701.480469 578.671875 702.027344 579.371094 702.648438 579.996094 C 703.835938 581.300781 705.15625 582.46875 706.511719 583.582031 C 709.253906 585.761719 712.246094 587.570312 715.363281 589.050781 C 721.382812 591.894531 727.804688 593.546875 734.242188 594.53125 C 732.816406 594.859375 731.613281 595.191406 730.804688 595.417969 C 726.015625 596.507812 721.519531 598.671875 717.09375 600.953125 C 713.261719 602.945312 709.734375 605.640625 706.800781 608.890625 Z M 706.800781 608.890625 " fill-opacity="1" fill-rule="nonzero"/><g clip-path="url(#id1)"><path fill="#000000" d="M 488.6875 494.625 C 490.316406 497.050781 491.855469 499.53125 493.609375 501.886719 C 495.203125 504.027344 496.566406 506.308594 498.144531 508.457031 C 499.644531 510.496094 501.035156 512.597656 502.484375 514.664062 C 502.71875 514.992188 503.019531 515.277344 503.308594 515.570312 C 503.40625 515.664062 503.613281 515.683594 504.015625 515.441406 C 504.386719 515.21875 504.300781 515.132812 504.273438 515.023438 C 503.785156 513.011719 502.507812 511.070312 502.109375 510.152344 C 501.257812 508.199219 500.046875 506.457031 499.164062 504.519531 C 497.636719 501.171875 495.265625 498.320312 493.421875 495.15625 C 492.574219 493.613281 491.503906 492.199219 490.558594 490.710938 C 488.902344 488.105469 487.253906 485.488281 485.347656 483.03125 C 485.023438 482.613281 484.679688 482.207031 484.292969 481.828125 C 484.1875 481.722656 483.996094 481.609375 483.527344 481.847656 C 483.007812 482.105469 483.070312 482.300781 483.058594 482.449219 C 483.011719 482.996094 484.398438 487.488281 485.277344 489.105469 C 486.308594 491.003906 487.476562 492.828125 488.6875 494.625 Z M 488.6875 494.625 " fill-opacity="1" fill-rule="nonzero"/></g><g clip-path="url(#id2)"><path fill="#000000" d="M 489.480469 520.199219 C 492.839844 521.695312 496.1875 523.207031 499.695312 524.394531 C 500.289062 524.597656 500.898438 524.769531 501.527344 524.894531 C 501.703125 524.925781 501.96875 524.914062 502.277344 524.371094 C 502.621094 523.773438 502.429688 523.621094 502.347656 523.46875 C 502.035156 522.890625 497.707031 519.351562 495.777344 518.324219 C 493.503906 517.117188 491.148438 516.078125 488.769531 515.089844 C 485.558594 513.753906 482.40625 512.304688 479.121094 511.121094 C 476.132812 510.046875 473.28125 508.679688 470.304688 507.582031 C 467.480469 506.542969 464.722656 505.371094 461.925781 504.277344 C 461.480469 504.105469 460.992188 504.019531 460.511719 503.921875 C 460.355469 503.890625 460.140625 504.007812 459.898438 504.511719 C 459.675781 504.972656 459.820312 505.003906 459.917969 505.09375 C 461.722656 506.769531 464.261719 507.855469 465.261719 508.503906 C 467.386719 509.882812 469.734375 510.816406 471.878906 512.15625 C 475.59375 514.472656 479.820312 515.742188 483.726562 517.667969 C 485.578125 518.644531 487.566406 519.34375 489.480469 520.199219 Z M 489.480469 520.199219 " fill-opacity="1" fill-rule="nonzero"/></g><g clip-path="url(#id3)"><path fill="#000000" d="M 769.53125 633.179688 C 767.429688 631.796875 764.6875 631.128906 763.566406 630.644531 C 761.195312 629.617188 758.671875 629.070312 756.285156 628.082031 C 752.152344 626.375 747.679688 625.808594 743.417969 624.527344 C 741.386719 623.855469 739.261719 623.488281 737.191406 622.953125 C 733.554688 622.007812 729.925781 621.050781 726.191406 620.449219 C 725.558594 620.34375 724.914062 620.273438 724.257812 620.253906 C 724.078125 620.25 723.8125 620.308594 723.59375 620.90625 C 723.347656 621.566406 723.566406 621.6875 723.675781 621.828125 C 724.089844 622.355469 729.046875 625.195312 731.164062 625.902344 C 733.65625 626.734375 736.207031 627.386719 738.769531 627.980469 C 742.230469 628.78125 745.652344 629.710938 749.164062 630.347656 C 752.355469 630.925781 755.457031 631.824219 758.644531 632.425781 C 761.664062 632.996094 764.644531 633.710938 767.644531 634.339844 C 768.121094 634.441406 768.628906 634.441406 769.128906 634.460938 C 769.292969 634.46875 769.492188 634.3125 769.648438 633.765625 C 769.792969 633.261719 769.644531 633.253906 769.53125 633.179688 Z M 769.53125 633.179688 " fill-opacity="1" fill-rule="nonzero"/></g><g clip-path="url(#id4)"><path fill="#000000" d="M 695.921875 695.421875 C 695.34375 693.617188 694.324219 692.035156 693.703125 690.25 C 692.632812 687.164062 690.527344 684.601562 689.070312 681.710938 C 688.417969 680.292969 687.492188 679.019531 686.722656 677.664062 C 685.367188 675.289062 684.027344 672.90625 682.367188 670.6875 C 682.082031 670.3125 681.777344 669.949219 681.417969 669.613281 C 681.320312 669.519531 681.128906 669.421875 680.5625 669.675781 C 679.941406 669.953125 679.976562 670.136719 679.933594 670.277344 C 679.777344 670.800781 680.484375 674.984375 681.15625 676.464844 C 681.949219 678.207031 682.90625 679.867188 683.914062 681.5 C 685.273438 683.703125 686.519531 685.964844 688.027344 688.09375 C 689.402344 690.027344 690.488281 692.113281 691.839844 694.058594 C 693.125 695.902344 694.277344 697.8125 695.503906 699.6875 C 695.699219 699.984375 695.984375 700.234375 696.25 700.496094 C 696.335938 700.578125 696.566406 700.582031 697.054688 700.328125 C 697.507812 700.09375 697.429688 700.019531 697.421875 699.917969 C 697.25 698.035156 696.199219 696.269531 695.921875 695.421875 Z M 695.921875 695.421875 " fill-opacity="1" fill-rule="nonzero"/></g><g fill="#fffb00" fill-opacity="1"><g transform="translate(546.193871, 596.798685)"><g><path d="M 0.980469 0 L 4.136719 0 L 4.136719 -3.859375 L 11.972656 -3.859375 C 15.152344 -3.859375 17.332031 -5.816406 17.332031 -8.9375 C 17.332031 -12.054688 15.152344 -13.992188 11.972656 -13.992188 L 0.980469 -13.992188 Z M 4.136719 -6.515625 L 4.136719 -11.335938 L 10.976562 -11.335938 C 12.214844 -11.335938 14.171875 -11.335938 14.171875 -8.9375 C 14.171875 -6.515625 12.214844 -6.515625 10.976562 -6.515625 Z M 4.136719 -6.515625 "/></g></g></g><g fill="#fffb00" fill-opacity="1"><g transform="translate(564.302903, 596.798685)"><g><path d="M 0.980469 0 L 4.136719 0 L 4.136719 -3.859375 L 10.675781 -3.859375 L 13.035156 0 L 16.753906 0 L 14.132812 -4.238281 C 16.113281 -4.917969 17.332031 -6.578125 17.332031 -8.9375 C 17.332031 -12.054688 15.152344 -13.992188 11.972656 -13.992188 L 0.980469 -13.992188 Z M 4.136719 -6.515625 L 4.136719 -11.335938 L 10.976562 -11.335938 C 12.214844 -11.335938 14.171875 -11.335938 14.171875 -8.9375 C 14.171875 -6.515625 12.214844 -6.515625 10.976562 -6.515625 Z M 4.136719 -6.515625 "/></g></g></g><g fill="#fffb00" fill-opacity="1"><g transform="translate(582.411935, 596.798685)"><g><path d="M 9.574219 0.199219 C 15.710938 0.199219 18.371094 -2.457031 18.371094 -7.015625 C 18.371094 -11.554688 15.710938 -14.195312 9.574219 -14.195312 C 3.417969 -14.195312 0.78125 -11.574219 0.78125 -7.015625 C 0.78125 -2.4375 3.417969 0.199219 9.574219 0.199219 Z M 9.574219 -2.457031 C 5.636719 -2.457031 3.9375 -3.777344 3.9375 -7.015625 C 3.9375 -10.234375 5.617188 -11.535156 9.574219 -11.535156 C 13.535156 -11.535156 15.214844 -10.214844 15.214844 -7.015625 C 15.214844 -3.796875 13.515625 -2.457031 9.574219 -2.457031 Z M 9.574219 -2.457031 "/></g></g></g><g fill="#fffb00" fill-opacity="1"><g transform="translate(601.560341, 596.798685)"><g><path d="M 0.980469 0 L 4.136719 0 L 4.136719 -10.253906 L 10.515625 0 L 12.894531 0 L 19.25 -10.253906 L 19.25 0 L 22.410156 0 L 22.410156 -13.992188 L 17.972656 -13.992188 L 11.695312 -3.660156 L 5.417969 -13.992188 L 0.980469 -13.992188 Z M 0.980469 0 "/></g></g></g><g fill="#fffb00" fill-opacity="1"><g transform="translate(624.946184, 596.798685)"><g><path d="M 9.574219 0.199219 C 15.710938 0.199219 18.371094 -2.457031 18.371094 -7.015625 C 18.371094 -11.554688 15.710938 -14.195312 9.574219 -14.195312 C 3.417969 -14.195312 0.78125 -11.574219 0.78125 -7.015625 C 0.78125 -2.4375 3.417969 0.199219 9.574219 0.199219 Z M 9.574219 -2.457031 C 5.636719 -2.457031 3.9375 -3.777344 3.9375 -7.015625 C 3.9375 -10.234375 5.617188 -11.535156 9.574219 -11.535156 C 13.535156 -11.535156 15.214844 -10.214844 15.214844 -7.015625 C 15.214844 -3.796875 13.515625 -2.457031 9.574219 -2.457031 Z M 9.574219 -2.457031 "/></g></g></g></svg>